<svg width="51" height="79" viewBox="0 0 51 79" fill="none" xmlns="http://www.w3.org/2000/svg">
<path fill-rule="evenodd" clip-rule="evenodd" d="M49.5469 48.7891C50.0992 48.7891 50.5469 49.2368 50.5469 49.7891V77.8672C50.5469 78.4195 50.0992 78.8672 49.5469 78.8672H1.54687C0.99459 78.8672 0.546875 78.4195 0.546875 77.8672V49.7891C0.546875 49.2368 0.99459 48.7891 1.54687 48.7891H7.63281C8.1851 48.7891 8.63281 48.3413 8.63281 47.7891V31.0781C8.63281 30.5258 8.1851 30.0781 7.63281 30.0781H1C0.447715 30.0781 0 29.6304 0 29.0781V1C0 0.447715 0.447716 0 1 0H41.9688C42.521 0 42.9688 0.447714 42.9688 0.999999V47.7891C42.9688 48.3413 43.4165 48.7891 43.9688 48.7891H49.5469Z" fill="#141414"/>
<path fill-rule="evenodd" clip-rule="evenodd" d="M42.0469 56.7891C42.323 56.7891 42.5469 57.0129 42.5469 57.2891V70.3672C42.5469 70.6433 42.323 70.8672 42.0469 70.8672H9.04688C8.77073 70.8672 8.54688 70.6433 8.54688 70.3672V57.2891C8.54688 57.0129 8.77073 56.7891 9.04688 56.7891H16.1328C16.409 56.7891 16.6328 56.5652 16.6328 56.2891V22.5781C16.6328 22.302 16.409 22.0781 16.1328 22.0781H8.5C8.22386 22.0781 8 21.8543 8 21.5781V8.5C8 8.22386 8.22386 8 8.5 8H34.4688C34.7449 8 34.9688 8.22386 34.9688 8.5V56.2891C34.9688 56.5652 35.1926 56.7891 35.4687 56.7891H42.0469ZM18.1328 20.0781C18.409 20.0781 18.6328 20.302 18.6328 20.5781V58.2891C18.6328 58.5652 18.409 58.7891 18.1328 58.7891H11.0469C10.7707 58.7891 10.5469 59.0129 10.5469 59.2891V68.3672C10.5469 68.6433 10.7707 68.8672 11.0469 68.8672H40.0469C40.323 68.8672 40.5469 68.6433 40.5469 68.3672V59.2891C40.5469 59.0129 40.323 58.7891 40.0469 58.7891H33.4688C33.1926 58.7891 32.9688 58.5652 32.9688 58.2891V10.5C32.9688 10.2239 32.7449 10 32.4688 10H10.5C10.2239 10 10 10.2239 10 10.5V19.5781C10 19.8543 10.2239 20.0781 10.5 20.0781H18.1328Z" fill="#8C8C8C"/>
</svg>
