<svg width="64" height="80" viewBox="0 0 64 80" fill="none" xmlns="http://www.w3.org/2000/svg">
<path d="M7.67115 41.4912L1.51568 41.2552C0.970354 41.2343 0.542489 40.78 0.554223 40.2344L0.744499 31.3866C0.931826 22.6759 3.1983 14.3392 9.25706 8.28049C15.3554 2.18216 23.6806 0 32.3438 0C40.174 0 47.6651 1.80515 53.6336 6.60837C59.9448 11.637 62.8906 18.7088 62.8906 26.5625C62.8906 31.0956 61.8519 35.5514 59.4129 39.5557C59.2034 39.9037 58.9872 40.2468 58.7646 40.585C58.3104 41.2748 58.7892 42.2266 59.6151 42.2266H62.9585C63.5263 42.2266 63.9802 42.6989 63.9577 43.2663L62.5393 78.9616C62.518 79.498 62.077 79.9219 61.5401 79.9219H1C0.447715 79.9219 0 79.4742 0 78.9219V69.9219C0 63.991 0.6947 58.4016 2.49404 53.5285C3.88443 49.7628 5.88494 46.3174 8.41715 43.1993C8.95246 42.5402 8.51967 41.5237 7.67115 41.4912Z" fill="#141414"/>
<path fill-rule="evenodd" clip-rule="evenodd" d="M10.8313 29.6035C11.2632 23.3349 13.0955 18.5842 16.3281 15.3516C19.8958 11.7839 25.2344 10 32.3438 10C38.724 10 43.737 11.4714 47.3828 14.4141C51.0547 17.3307 52.8906 21.3802 52.8906 26.5625C52.8906 29.5573 52.2135 32.1615 50.8594 34.375C49.5312 36.5885 47.7344 38.6068 45.4688 40.4297C43.2031 42.2266 39.9089 44.4271 35.5859 47.0312C29.6636 50.6724 25.9676 54.2765 24.4978 57.8438C24.303 58.3163 24.1474 58.7883 24.0308 59.2595C23.956 59.5618 24.1923 59.8438 24.5037 59.8438H41.1797C41.4558 59.8438 41.6797 59.6199 41.6797 59.3438V52.7266C41.6797 52.4504 41.9035 52.2266 42.1797 52.2266H53.0735C53.3574 52.2266 53.5844 52.4627 53.5731 52.7464L52.9097 69.4417C52.899 69.7099 52.6785 69.9219 52.4101 69.9219H10.5C10.2239 69.9219 9.99979 69.698 10.0019 69.4219C10.0059 68.9129 10.0158 68.4129 10.0319 67.9219C10.1736 63.5795 10.788 59.9363 11.875 56.9922C13.125 53.6068 15.0911 50.5078 17.7734 47.6953C20.4818 44.8568 24.4531 41.4974 29.6875 37.6172C32.4479 35.5859 34.5443 33.6198 35.9766 31.7188C37.4349 29.8177 38.1641 27.8646 38.1641 25.8594C38.1641 23.8802 37.5911 22.3828 36.4453 21.3672C35.2995 20.3516 33.6589 19.8438 31.5234 19.8438C28.763 19.8438 26.7057 20.8073 25.3516 22.7344C24.074 24.563 23.2905 27.5121 23.0008 31.5816C22.9815 31.8528 22.7516 32.062 22.4799 32.0516L11.2335 31.6204C10.9608 31.6099 10.7466 31.3828 10.7555 31.1101C10.7662 30.7786 10.7807 30.451 10.7987 30.1273C10.8085 29.9516 10.8194 29.777 10.8313 29.6035ZM26.9896 23.8819C27.9011 22.5863 29.2873 21.8438 31.5234 21.8438C33.3626 21.8438 34.4609 22.2809 35.1187 22.8639C35.7188 23.3958 36.1641 24.2741 36.1641 25.8594C36.1641 27.3433 35.634 28.8794 34.3897 30.5014L34.3844 30.5083L34.3792 30.5153C33.1027 32.2095 31.1686 34.0442 28.5021 36.0063L28.4965 36.0105C23.2219 39.9205 19.1479 43.3575 16.3264 46.3147C13.4704 49.3093 11.3504 52.6388 9.99881 56.2994C8.63894 59.9824 8 64.5482 8 69.9219V71.4219C8 71.698 8.22386 71.9219 8.5 71.9219H54.3322C54.6006 71.9219 54.8212 71.7099 54.8318 71.4417L55.6541 50.7464C55.6654 50.4627 55.4385 50.2266 55.1545 50.2266H40.1797C39.9035 50.2266 39.6797 50.4504 39.6797 50.7266V57.3438C39.6797 57.6199 39.4558 57.8438 39.1797 57.8438H27.5248C27.1499 57.8438 26.9112 57.4484 27.1076 57.129C28.6823 54.5682 31.7246 51.754 36.626 48.7396C40.973 46.1206 44.3488 43.8706 46.7115 41.9967L46.7225 41.9879C49.1464 40.0377 51.1066 37.848 52.57 35.4113C54.1413 32.8394 54.8906 29.8647 54.8906 26.5625C54.8906 20.8461 52.8328 16.1919 48.6329 12.8529C44.5222 9.53782 39.0133 8 32.3438 8C24.9236 8 18.9877 9.86352 14.9139 13.9373C10.848 18.0033 8.90512 24.0039 8.74265 31.5586L8.71094 33.0332C8.70507 33.306 8.919 33.5331 9.19167 33.5436L24.3586 34.1251C24.6303 34.1355 24.8605 33.9269 24.8769 33.6555L24.9651 32.1906C25.2195 27.9673 25.9879 25.3173 26.9896 23.8819Z" fill="#8C8C8C"/>
</svg>
