<svg width="66" height="81" viewBox="0 0 66 81" fill="none" xmlns="http://www.w3.org/2000/svg">
<path d="M1.88678 35.0844L2.58215 26.175C3.17502 18.5789 6.19253 11.7521 12.1821 6.79627C17.9948 1.95995 25.1884 0 32.7862 0C40.4643 0 47.7833 1.75256 53.727 6.30159C60.0573 11.097 63.255 17.9482 63.255 25.7812C63.255 29.7467 62.3982 33.6278 60.4801 37.1661C60.3379 37.4285 60.3656 37.7511 60.5508 37.9852C63.9954 42.3396 65.4815 47.4913 65.4815 52.8125C65.4815 58.245 63.9754 63.3828 60.847 67.8866C57.8064 72.2756 53.6626 75.4837 48.82 77.6234C44.0118 79.748 38.816 80.7031 33.4112 80.7031C24.9798 80.7031 16.9192 78.7908 10.7043 73.5081C4.34689 68.1043 1.43813 60.4762 0.786101 52.2339L0.0786101 43.2905C0.0351545 42.7412 0.444275 42.2602 0.993457 42.215L17.3259 40.8706C17.5198 40.8546 17.669 40.6926 17.669 40.498V40.2309C17.669 40.2306 17.6689 40.2304 17.6686 40.2304C17.6682 40.2302 17.6681 40.2295 17.6686 40.2293L17.6687 40.2293C17.6689 40.2292 17.669 40.229 17.669 40.2287V38.3436C17.669 37.8242 17.2714 37.3913 16.7539 37.3472L2.79888 36.1586C2.25134 36.112 1.84402 35.6323 1.88678 35.0844Z" fill="#141414"/>
<path fill-rule="evenodd" clip-rule="evenodd" d="M12.1852 24.9661C12.9025 20.5732 14.8286 17.0819 17.9635 14.4922C21.5572 11.4974 26.2968 10 32.1822 10C38.4062 10 43.3671 11.4193 47.0651 14.2578C50.789 17.0703 52.651 20.9115 52.651 25.7812C52.651 30.8595 50.4698 34.775 46.1073 37.5279C45.7199 37.7724 45.3153 38.0077 44.8935 38.2338C44.4968 38.4465 44.5299 39.0517 44.9487 39.2167C45.3964 39.3932 45.8289 39.5784 46.2462 39.7725C52.0004 42.4476 54.8776 46.7943 54.8776 52.8125C54.8776 56.3281 53.927 59.4531 52.026 62.1875C50.151 64.8958 47.5338 66.9922 44.1744 68.4766C40.8151 69.9609 37.026 70.7031 32.8072 70.7031C19.466 70.7031 11.9862 64.9468 10.3678 53.4342C10.2871 52.8602 10.221 52.2719 10.1694 51.6693C10.1588 51.5455 10.2512 51.4371 10.375 51.4269L22.4266 50.4348C22.7164 50.411 22.9648 50.6386 22.9735 50.9293C22.9885 51.4355 23.0194 51.922 23.0662 52.3889C23.6215 57.9317 26.4127 60.7031 31.4401 60.7031C34.0182 60.7031 36.1145 59.8958 37.7291 58.2812C39.3437 56.6667 40.151 54.6745 40.151 52.3047C40.151 49.8568 39.2916 47.8776 37.5729 46.3672C35.8802 44.8307 33.4713 44.0625 30.3463 44.0625C30.0856 44.0625 29.6585 44.0806 29.0651 44.1167C28.6567 44.1416 28.1695 44.1751 27.6036 44.2171C27.3131 44.2386 27.0651 44.0091 27.0651 43.7179V34.0085C27.0651 33.7351 27.2851 33.5129 27.5584 33.5048C30.9425 33.4038 33.6036 32.7694 35.5416 31.6016C37.5729 30.3776 38.5885 28.6198 38.5885 26.3281C38.5885 24.5052 37.8984 23.0208 36.5182 21.875C35.164 20.7292 33.4453 20.1562 31.3619 20.1562C27.3139 20.1562 25.0138 22.1081 24.4615 26.0117C24.3969 26.4689 24.3562 26.9528 24.3394 27.4635C24.3298 27.7562 24.0801 27.9865 23.7882 27.9616L12.3066 26.9837C12.1081 26.9668 11.9601 26.7928 11.9784 26.5944C12.0298 26.0385 12.0987 25.4957 12.1852 24.9661ZM53.6692 63.3277C51.561 66.372 48.6386 68.6906 44.9828 70.3059C41.3336 71.9184 37.2632 72.7031 32.8072 72.7031C25.4855 72.7031 19.5453 71.0368 15.2815 67.4126C10.9892 63.7641 8.69387 58.3869 8.15722 51.603L8.03931 50.1125C8.01758 49.8378 8.22214 49.5973 8.49673 49.5747L24.4102 48.2648C24.7 48.2409 24.949 48.4685 24.9512 48.7593L24.9634 50.3755C24.9878 53.5917 25.6661 55.6376 26.6667 56.855C27.6043 57.9957 29.0706 58.7031 31.4401 58.7031C33.5624 58.7031 35.1251 58.0569 36.3149 56.867C37.5389 55.6431 38.151 54.1665 38.151 52.3047C38.151 50.3866 37.5063 48.9712 36.2526 47.8695L36.2406 47.8589L36.2287 47.8481C35.0207 46.7516 33.1584 46.0625 30.3463 46.0625C29.9435 46.0625 28.9315 46.1201 27.2184 46.2519L25.6034 46.3762C25.313 46.3985 25.0651 46.1689 25.0651 45.8776V32.0371C25.0651 31.7637 25.2846 31.541 25.5579 31.5371L27.0363 31.5158C30.4736 31.4664 32.9006 30.8579 34.5094 29.8885C35.9657 29.011 36.5885 27.8892 36.5885 26.3281C36.5885 25.0889 36.1547 24.1726 35.2407 23.4138L35.2335 23.4078L35.2263 23.4018C34.2944 22.6132 33.059 22.1562 31.3619 22.1562C29.387 22.1562 28.2554 22.6974 27.5784 23.4534C26.8638 24.2513 26.3307 25.6478 26.3307 28.0078V29.641C26.3307 29.9339 26.0801 30.1641 25.7882 30.1392L10.2941 28.8195C10.0203 28.7962 9.81666 28.5563 9.83804 28.2824L9.95393 26.7975C10.4058 21.0076 12.6135 16.3191 16.6865 12.9529C20.7242 9.58976 25.9547 8 32.1822 8C38.6964 8 44.1292 9.48564 48.2766 12.6665C52.5218 15.8754 54.651 20.3189 54.651 25.7812C54.651 29.0861 53.819 32.0522 52.0868 34.5933C51.2104 35.8789 50.1258 37.0235 48.8504 38.0346C48.5607 38.2643 48.5922 38.7219 48.9116 38.908C50.8139 40.0162 52.413 41.3563 53.6726 42.9486C55.8407 45.6893 56.8776 49.0191 56.8776 52.8125C56.8776 56.7116 55.8158 60.2393 53.6692 63.3277Z" fill="#8C8C8C"/>
</svg>
