<svg width="70" height="80" viewBox="0 0 70 80" fill="none" xmlns="http://www.w3.org/2000/svg">
<path fill-rule="evenodd" clip-rule="evenodd" d="M68.1264 34.336C68.6787 34.336 69.1264 34.7837 69.1264 35.336V63.5157C69.1264 63.7314 68.9515 63.9063 68.7358 63.9063C68.52 63.9063 68.3451 64.0812 68.3451 64.2969V78.9219C68.3451 79.4742 67.8974 79.9219 67.3451 79.9219H23.2514C22.6991 79.9219 22.2514 79.4742 22.2514 78.9219V64.9063C22.2514 64.354 21.8037 63.9063 21.2514 63.9063H8.73675C8.31497 63.9063 7.93854 63.6416 7.79577 63.2448L5.65416 57.2911C4.37336 53.7305 3.49758 51.6777 3.0053 50.7393L0.30053 45.5833C0.117644 45.2347 0.156324 44.8112 0.399344 44.5015L35.0163 0.382728C35.2059 0.141126 35.4959 2.31266e-05 35.803 2.31266e-05H48.4295L48.8858 -1.90735e-06L49.3608 2.31266e-05H61.8764C62.4287 2.31266e-05 62.8764 0.447739 62.8764 1.00002V33.336C62.8764 33.8882 63.3241 34.336 63.8764 34.336H68.1264Z" fill="#141414"/>
<path fill-rule="evenodd" clip-rule="evenodd" d="M60.1378 42.3359C60.4139 42.3359 60.6378 42.5598 60.6378 42.8359V55.4062C60.6378 55.6824 60.4139 55.9062 60.1378 55.9062H54.8878C54.6116 55.9062 54.3878 56.1301 54.3878 56.4062V58.125C54.3878 58.4011 54.6116 58.625 54.8878 58.625H59.3565C59.6327 58.625 59.8565 58.8489 59.8565 59.125V71.4219C59.8565 71.698 59.6327 71.9219 59.3565 71.9219H30.2628C29.9866 71.9219 29.7628 71.698 29.7628 71.4219V59.125C29.7628 58.8489 29.9866 58.625 30.2628 58.625H36.3722C36.6483 58.625 36.8722 58.4011 36.8722 58.125V56.4062C36.8722 56.1301 36.6483 55.9062 36.3722 55.9062H13.5208C13.3099 55.9062 13.1216 55.7739 13.0503 55.5755L12.6933 54.5832C11.3955 50.9753 10.3662 48.4814 9.60106 47.0229L9.15026 46.1635C9.05882 45.9892 9.07816 45.7775 9.19967 45.6226L38.5694 8.19135C38.6642 8.07055 38.8092 8 38.9628 8H53.8878C54.1639 8 54.3878 8.22386 54.3878 8.5V41.8359C54.3878 42.1121 54.6116 42.3359 54.8878 42.3359H60.1378ZM38.3722 53.9062C38.6483 53.9062 38.8722 54.1301 38.8722 54.4062V60.125C38.8722 60.4011 38.6483 60.625 38.3722 60.625H32.2628C31.9866 60.625 31.7628 60.8489 31.7628 61.125V69.4219C31.7628 69.698 31.9866 69.9219 32.2628 69.9219H57.3565C57.6327 69.9219 57.8565 69.698 57.8565 69.4219V61.125C57.8565 60.8489 57.6327 60.625 57.3565 60.625H52.8878C52.6116 60.625 52.3878 60.4011 52.3878 60.125V54.4062C52.3878 54.1301 52.6116 53.9062 52.8878 53.9062H58.1378C58.4139 53.9062 58.6378 53.6824 58.6378 53.4062V44.8359C58.6378 44.5598 58.4139 44.3359 58.1378 44.3359H52.8878C52.6116 44.3359 52.3878 44.1121 52.3878 43.8359V10.5C52.3878 10.2239 52.1639 10 51.8878 10H39.9357C39.7821 10 39.6371 10.0706 39.5423 10.1914L11.5718 45.8393C11.4503 45.9941 11.4312 46.2053 11.5199 46.3811C12.304 47.9361 13.2827 50.3343 14.456 53.5756C14.5277 53.7739 14.7159 53.9062 14.9268 53.9062H38.3722ZM38.8722 43.8359C38.8722 44.1121 38.6483 44.3359 38.3722 44.3359H26.3187C25.8995 44.3359 25.6664 43.851 25.9283 43.5236L37.9817 28.4568C38.277 28.0877 38.8722 28.2965 38.8722 28.7691V43.8359ZM36.8722 34.4707C36.8722 33.9981 36.277 33.7893 35.9817 34.1584L30.0895 41.5236C29.8276 41.851 30.0607 42.3359 30.48 42.3359H36.3722C36.6483 42.3359 36.8722 42.1121 36.8722 41.8359V34.4707Z" fill="#8C8C8C"/>
</svg>
