<svg width="67" height="80" viewBox="0 0 67 80" fill="none" xmlns="http://www.w3.org/2000/svg">
<path fill-rule="evenodd" clip-rule="evenodd" d="M62.2298 34.5087C62.1955 34.4493 62.2383 34.375 62.3068 34.375H62.8622C63.0874 34.375 63.27 34.1925 63.27 33.9673V0.999999C63.27 0.447714 62.8222 0 62.27 0H7.6446C7.1191 0 6.68325 0.406732 6.64698 0.930974L3.76644 42.563C3.73333 43.0415 3.36519 43.4291 2.88906 43.4867L1.01144 43.7141C0.455918 43.7814 0.063717 44.2915 0.141355 44.8456L1.41355 53.9265C2.48729 61.5907 5.96823 68.2523 12.1269 73.0469L12.1562 73.0697L12.1856 73.0923C18.2474 77.7396 25.6073 79.6484 33.4262 79.6484C39.2013 79.6484 44.7363 78.6123 49.7648 76.2123C54.8919 73.7653 59.0675 70.0645 61.9778 65.1578C64.8784 60.312 66.1996 54.909 66.1996 49.2578C66.1996 44.0168 64.8795 39.0351 62.2298 34.5087Z" fill="#141414"/>
<path fill-rule="evenodd" clip-rule="evenodd" d="M42.0401 26.375C41.8099 26.375 41.6094 26.2178 41.5546 25.9942L40.6868 22.4589C40.6319 22.2353 40.4315 22.0781 40.2012 22.0781H28.344C28.086 22.0781 27.8703 22.2744 27.8462 22.5313L27.2772 28.5819C27.243 28.9452 27.5973 29.2223 27.9453 29.1122C30.285 28.3718 32.7083 28 35.2087 28C39.6471 28 43.6382 28.9026 47.1227 30.7724C50.6156 32.6065 53.3445 35.1958 55.2584 38.5267C57.1842 41.807 58.1462 45.3972 58.1462 49.2578C58.1462 53.6378 57.1321 57.5933 55.052 61.0625C52.9908 64.544 50.0409 67.1905 46.2654 68.9925C42.5098 70.785 38.1944 71.6484 33.3727 71.6484C26.8506 71.6484 21.337 70.0688 16.9996 66.7435L16.9937 66.7389L16.9879 66.7344C12.652 63.3588 10.1016 58.6619 9.28271 52.8165L9.07068 51.3031C9.03186 51.026 9.22796 50.771 9.50572 50.7373L25.0347 48.8565C25.3015 48.8242 25.5461 49.0086 25.5885 49.274L25.8164 50.7C26.2327 53.3048 27.0578 54.9871 28.0911 56.011C29.0836 56.9946 30.4693 57.5703 32.4743 57.5703C34.9903 57.5703 36.5901 56.8781 37.6153 55.7821C38.6716 54.653 39.3415 52.9047 39.3415 50.2344C39.3415 47.1687 38.6743 45.2428 37.6881 44.099C36.7508 43.0118 35.2464 42.3125 32.7868 42.3125C30.1758 42.3125 27.9118 43.4874 25.9277 46.2154L25.1849 47.2368C25.0418 47.4335 24.7779 47.4987 24.5596 47.3913L12.1328 41.2713C11.9507 41.1816 11.8409 40.9907 11.8549 40.7882L14.0913 8.46549C14.1095 8.20337 14.3274 8 14.5901 8H54.7165C54.9926 8 55.2165 8.22386 55.2165 8.5V25.875C55.2165 26.1511 54.9926 26.375 54.7165 26.375H42.0401ZM53.3337 60.0391C55.2087 56.9141 56.1462 53.3203 56.1462 49.2578C56.1462 45.7422 55.2738 42.5 53.529 39.5312C51.8102 36.5365 49.3623 34.2057 46.1852 32.5391C43.0342 30.8464 39.3753 30 35.2087 30C32.358 30 29.6203 30.5249 26.9957 31.5748C26.567 31.7463 26.1412 31.9318 25.7185 32.1313C25.3604 32.3003 24.945 32.0194 24.9821 31.6251L26.0254 20.5313C26.0496 20.2744 26.2652 20.0781 26.5232 20.0781H41.7697C41.9999 20.0781 42.2004 20.2353 42.2553 20.4589L43.123 23.9942C43.1779 24.2178 43.3784 24.375 43.6086 24.375H52.7165C52.9926 24.375 53.2165 24.1511 53.2165 23.875V10.5C53.2165 10.2239 52.9926 10 52.7165 10H16.4565C16.1938 10 15.9759 10.2034 15.9577 10.4655L13.9428 39.5871C13.9288 39.7896 14.0386 39.9805 14.2207 40.0701L23.9326 44.8531C24.1508 44.9606 24.4143 44.8945 24.5624 44.7015C26.8081 41.7755 29.5496 40.3125 32.7868 40.3125C38.4899 40.3125 41.3415 43.6198 41.3415 50.2344C41.3415 53.2292 40.5863 55.5339 39.0759 57.1484C37.5655 58.763 35.3649 59.5703 32.4743 59.5703C27.767 59.5703 24.9166 56.8771 23.9232 51.4907C23.8744 51.2264 23.6304 51.0412 23.3636 51.0735L11.7691 52.4778C11.4913 52.5115 11.2947 52.7666 11.339 53.0428C11.4192 53.5425 11.5132 54.0316 11.621 54.5104C12.6242 58.9654 14.8227 62.5141 18.2165 65.1562C22.1227 68.151 27.1748 69.6484 33.3727 69.6484C37.9561 69.6484 41.9665 68.8281 45.404 67.1875C48.8415 65.5469 51.4847 63.1641 53.3337 60.0391Z" fill="#8C8C8C"/>
</svg>
