<svg width="65" height="81" viewBox="0 0 65 81" fill="none" xmlns="http://www.w3.org/2000/svg">
<path d="M60.3208 35.8938C62.8786 40.3286 64.0625 45.2207 64.0625 50.3125C64.0625 58.6191 61.6131 66.3538 55.7292 72.2801C49.8077 78.2442 42.0211 80.7031 33.6719 80.7031C23.5592 80.7031 14.2442 77.6119 7.9335 69.7235L7.92318 69.7106L7.9129 69.6977C2.02418 62.2867 0 52.0991 0 41.0547C0 29.7401 2.26604 19.4389 8.35316 11.7055L8.36259 11.6936L8.37205 11.6816C14.826 3.53348 24.1323 0 34.5703 0C41.706 0 48.6886 1.72618 54.1856 6.47722C59.7268 11.2665 62.3757 17.9314 63.2119 24.9965L64.3025 34.2109C64.3689 34.7712 63.9588 35.2754 63.3967 35.3246L60.4847 35.5795C60.3321 35.5929 60.2452 35.7605 60.3208 35.8938Z" fill="#141414"/>
<path fill-rule="evenodd" clip-rule="evenodd" d="M55.4492 27.4725C55.4823 27.7527 55.2773 28.0048 54.9962 28.0294L40.6041 29.2893C40.363 29.3104 40.1413 29.1557 40.078 28.9221L39.7495 27.7111C39.142 25.4718 38.3075 24.0127 37.379 23.1266C36.497 22.2849 35.412 21.8438 33.9844 21.8438C31.927 21.8438 30.2543 22.7353 28.8583 24.8493C27.9482 26.2361 27.2247 28.0792 26.7352 30.4307C26.6554 30.8139 27.0367 31.1262 27.4061 30.9969C29.7761 30.1673 32.3255 29.7578 35.0391 29.7578C39.0624 29.7578 42.7046 30.6463 45.9068 32.4781C49.1016 34.2647 51.6049 36.7333 53.3765 39.8661C55.18 42.9824 56.0625 46.4818 56.0625 50.3125C56.0625 57.0155 54.1247 62.5416 50.0521 66.6435C45.972 70.753 40.425 72.7031 33.6719 72.7031C25.1702 72.7031 18.5259 70.1578 14.1804 64.726L14.1763 64.7208C9.93609 59.3844 8 51.3677 8 41.0547C8 30.6459 10.1095 22.4086 14.6394 16.6536L14.6432 16.6488C19.2673 10.8109 26.0244 8 34.5703 8C40.4766 8 45.3601 9.42336 48.9543 12.5298C52.5573 15.6439 54.5897 20.2113 55.2674 25.9368L55.4492 27.4725ZM51.6406 40.8594C50.0521 38.0469 47.8125 35.8333 44.9219 34.2188C42.0573 32.5781 38.763 31.7578 35.0391 31.7578C31.813 31.7578 28.8831 32.3822 26.2493 33.6309C25.8234 33.8328 25.4052 34.0511 24.9947 34.2857C24.6371 34.4901 24.1839 34.2186 24.2223 33.8085C24.2695 33.304 24.3247 32.8126 24.388 32.3343C24.8651 28.7274 25.7983 25.8659 27.1875 23.75C28.9062 21.1458 31.1719 19.8438 33.9844 19.8438C37.6806 19.8438 40.2078 22.1573 41.5659 26.7844C41.6341 27.0167 41.8552 27.1721 42.0963 27.151L52.7677 26.2168C53.0488 26.1922 53.2542 25.9401 53.2165 25.6605C53.1486 25.1585 53.0696 24.6685 52.9795 24.1906C51.1963 14.7302 45.0599 10 34.5703 10C26.4974 10 20.3776 12.6302 16.2109 17.8906C12.0703 23.151 10 30.8724 10 41.0547C10 51.1849 11.9141 58.6589 15.7422 63.4766C19.5964 68.2943 25.5729 70.7031 33.6719 70.7031C40.026 70.7031 45.013 68.8802 48.6328 65.2344C52.2526 61.5885 54.0625 56.6146 54.0625 50.3125C54.0625 46.7969 53.2552 43.6458 51.6406 40.8594ZM36.9811 45.9411L36.9754 45.9349C35.9721 44.86 34.5301 44.2266 32.3828 44.2266C30.6782 44.2266 28.6889 44.6491 26.3924 45.5764C26.2017 45.6534 26.0796 45.8424 26.0856 46.0479C26.2238 50.7957 26.9743 53.9481 28.1034 55.7778C29.2946 57.6679 31.0206 58.625 33.5938 58.625C35.0605 58.625 36.1765 58.0881 37.1007 56.9266C38.0293 55.7342 38.625 53.8887 38.625 51.1328C38.625 48.6284 37.9864 47.0002 36.9869 45.9472L36.9811 45.9411ZM26.4062 56.8359C24.8727 54.3567 24.0917 50.3223 24.0633 44.7325C24.0623 44.5388 24.1742 44.3611 24.3503 44.2803C27.3334 42.9111 30.0109 42.2266 32.3828 42.2266C34.9609 42.2266 36.9792 43.0078 38.4375 44.5703C39.8958 46.1068 40.625 48.2943 40.625 51.1328C40.625 54.1536 39.974 56.4974 38.6719 58.1641C37.3698 59.8047 35.6771 60.625 33.5938 60.625C30.3906 60.625 27.9948 59.362 26.4062 56.8359Z" fill="#8C8C8C"/>
</svg>
