<svg width="65" height="79" viewBox="0 0 65 79" fill="none" xmlns="http://www.w3.org/2000/svg">
<path fill-rule="evenodd" clip-rule="evenodd" d="M16.9277 39.3432C17.1786 38.6824 16.6944 37.9688 15.9876 37.9688H1C0.447715 37.9688 0 37.521 0 36.9688V1C0 0.447715 0.447714 0 0.999999 0H63.1406C63.6929 0 64.1406 0.447716 64.1406 1V21.4227C64.1406 21.6956 64.0291 21.9566 63.832 22.1452L61.0543 24.8032C58.952 26.8148 56.7237 29.7358 54.4777 33.8201C52.2616 37.8972 50.4818 42.2377 49.1438 46.8582C49.0781 47.0895 49.0141 47.3193 48.9518 47.5476C48.7803 48.1761 49.2579 48.7891 49.9093 48.7891H54.5859C55.1382 48.7891 55.5859 49.2368 55.5859 49.7891V77.8672C55.5859 78.4195 55.1382 78.8672 54.5859 78.8672H5.14062C4.58834 78.8672 4.14062 78.4195 4.14062 77.8672V49.7891C4.14062 49.2368 4.58834 48.7891 5.14062 48.7891H13.1726C13.6316 48.7891 14.031 48.4765 14.1466 48.0322C14.9017 45.1294 15.8307 42.2327 16.9277 39.3432Z" fill="#141414"/>
<path fill-rule="evenodd" clip-rule="evenodd" d="M47.5859 56.7891V70.3672C47.5859 70.6433 47.3621 70.8672 47.0859 70.8672H12.6406C12.3645 70.8672 12.1406 70.6433 12.1406 70.3672V57.2891C12.1406 57.0129 12.3645 56.7891 12.6406 56.7891H20.0601C20.3067 56.7891 20.5163 56.6093 20.5556 56.3659C21.5694 50.085 23.5291 43.7431 26.4182 37.3436M22.2836 58.3524C22.2501 58.6019 22.0378 58.7891 21.786 58.7891H14.6406C14.3645 58.7891 14.1406 59.0129 14.1406 59.2891V68.3672C14.1406 68.6433 14.3645 68.8672 14.6406 68.8672H45.0859C45.3621 68.8672 45.5859 68.6433 45.5859 68.3672V59.2891C45.5859 59.0129 45.3621 58.7891 45.0859 58.7891H37.6211C37.3404 58.7891 37.1145 58.558 37.1243 58.2775C37.1414 57.7863 37.1669 57.2902 37.2007 56.7891C37.4658 52.8632 38.2426 48.634 39.5312 44.1016C41.0677 38.7891 43.125 33.763 45.7031 29.0234C48.2631 24.3643 51.0244 20.5985 53.9871 17.726C54.085 17.6311 54.1406 17.501 54.1406 17.3645V10.5C54.1406 10.2239 53.9168 10 53.6406 10H10.5C10.2239 10 10 10.2239 10 10.5V27.4688C10 27.7449 10.2239 27.9688 10.5 27.9688H20.2812C20.5574 27.9688 20.7812 27.7449 20.7812 27.4688V20.3438C20.7812 20.0676 21.0051 19.8438 21.2812 19.8438H39.0168C39.4523 19.8438 39.6815 20.3635 39.3925 20.6893C39.0554 21.0695 38.7225 21.4543 38.3938 21.8438C34.3823 26.5964 30.9984 32.0366 28.2422 38.1641C25.1589 44.9932 23.1727 51.7227 22.2836 58.3524ZM26.4182 37.3436C28.848 31.942 31.7608 27.0452 35.1602 22.6615C35.4172 22.33 35.1829 21.8438 34.7635 21.8438H23.2812C23.0051 21.8438 22.7812 22.0676 22.7812 22.3438V29.4688C22.7812 29.7449 22.5574 29.9688 22.2812 29.9688H8.5C8.22386 29.9688 8 29.7449 8 29.4688V8.5C8 8.22386 8.22386 8 8.5 8H55.6406C55.9168 8 56.1406 8.22386 56.1406 8.5V18.2189C56.1406 18.3553 56.0849 18.4858 55.9863 18.5801L55.5234 19.0231C52.6864 21.7378 49.9907 25.3741 47.458 29.9827C44.9524 34.5898 42.9506 39.4786 41.4538 44.6526C40.2708 48.8146 39.54 52.6799 39.2463 56.2544C39.2226 56.5434 39.452 56.7891 39.742 56.7891H47.5859" fill="#8C8C8C"/>
</svg>
