<svg width="35" height="35" viewBox="0 0 35 35" fill="none" xmlns="http://www.w3.org/2000/svg">
<circle cx="17.5" cy="17.5" r="17.5" fill="url(#paint0_linear_842_204124)"/>
<path fill-rule="evenodd" clip-rule="evenodd" d="M23.2063 15.8281L26.043 7.62586C26.071 7.53309 26.0688 7.43491 26.0367 7.34325C26.0047 7.2516 25.9442 7.17043 25.8625 7.1096C25.7809 7.04878 25.6816 7.01092 25.5769 7.00064C25.4721 6.99036 25.3663 7.0081 25.2724 7.0517L20.677 9.47353L18.0058 5.25584C17.9593 5.17839 17.8909 5.11378 17.8078 5.06876C17.7246 5.02375 17.6297 5 17.533 5C17.4363 5 17.3414 5.02375 17.2582 5.06876C17.175 5.11378 17.1066 5.17839 17.0602 5.25584L14.4079 9.47353L9.81246 7.0517C9.71805 7.00269 9.60974 6.98061 9.50147 6.98831C9.3932 6.99601 9.28993 7.03314 9.20498 7.09492C9.12004 7.15669 9.05729 7.24028 9.02484 7.33491C8.99239 7.42954 8.99172 7.53088 9.02291 7.62586L11.8596 15.8281H23.2063ZM22.8738 17.6328H12.0159V19.4374H22.8738V17.6328Z" fill="white"/>
<path d="M10.2695 28V25.8984H12.3555V24.8008H10.2695V23.5156H12.5781V22.3633H8.83594V28H10.2695Z" fill="white"/>
<path d="M14.9297 23.4453H15.457C15.7201 23.4453 15.9258 23.5143 16.0742 23.6523C16.2253 23.7904 16.3008 23.9792 16.3008 24.2188C16.3008 24.4635 16.2253 24.6576 16.0742 24.8008C15.9232 24.944 15.7188 25.0156 15.4609 25.0156H14.9297V23.4453ZM15.3555 26.0273L16.3047 28H17.9141L16.8047 25.8164C17.099 25.6862 17.332 25.4792 17.5039 25.1953C17.6784 24.9089 17.7656 24.5846 17.7656 24.2227C17.7656 23.6393 17.5794 23.1836 17.207 22.8555C16.8346 22.5273 16.319 22.3633 15.6602 22.3633H13.4961V28H14.9297V26.0273H15.3555Z" fill="white"/>
<path d="M22.4062 26.8477H20.1133V25.6953H22.2617V24.6406H20.1133V23.5156H22.4062V22.3633H18.6797V28H22.4062V26.8477Z" fill="white"/>
<path d="M27.3516 26.8477H25.0586V25.6953H27.207V24.6406H25.0586V23.5156H27.3516V22.3633H23.625V28H27.3516V26.8477Z" fill="white"/>
<defs>
<linearGradient id="paint0_linear_842_204124" x1="2" y1="1.5" x2="27.0767" y2="26.3338" gradientUnits="userSpaceOnUse">
<stop offset="0.0001" stop-color="#4889FF"/>
<stop offset="1" stop-color="#AB53FF"/>
</linearGradient>
</defs>
</svg>
