<svg width="35" height="35" viewBox="0 0 35 35" fill="none" xmlns="http://www.w3.org/2000/svg">
<circle cx="17.5" cy="17.5" r="17.5" fill="url(#paint0_linear_842_204128)"/>
<path fill-rule="evenodd" clip-rule="evenodd" d="M15.2801 19.8281C16.2313 16.2183 19.4973 13.548 23.3947 13.5006L24.043 11.6259C24.071 11.5331 24.0688 11.4349 24.0367 11.3433C24.0047 11.2516 23.9442 11.1704 23.8625 11.1096C23.7809 11.0488 23.6816 11.0109 23.5769 11.0006C23.4721 10.9904 23.3663 11.0081 23.2724 11.0517L18.677 13.4735L16.0058 9.25584C15.9593 9.17839 15.8909 9.11378 15.8078 9.06876C15.7246 9.02375 15.6297 9 15.533 9C15.4363 9 15.3414 9.02375 15.2582 9.06876C15.175 9.11378 15.1066 9.17839 15.0602 9.25584L12.4079 13.4735L7.81246 11.0517C7.71805 11.0027 7.60974 10.9806 7.50147 10.9883C7.3932 10.996 7.28993 11.0331 7.20498 11.0949C7.12004 11.1567 7.05729 11.2403 7.02484 11.3349C6.99239 11.4295 6.99172 11.5309 7.02291 11.6259L9.8596 19.8281H15.2801ZM15.0079 21.6328H10.0159V23.4374H15.1211C15.0415 22.9702 15.0001 22.4899 15.0001 22C15.0001 21.877 15.0027 21.7545 15.0079 21.6328Z" fill="white"/>
<path d="M23.5 28.5497C27.0828 28.5497 30.05 25.5889 30.05 21.9997C30.05 18.4169 27.0828 15.4498 23.4937 15.4498C19.9108 15.4498 16.95 18.417 16.95 21.9997C16.95 25.5889 19.9172 28.5497 23.5 28.5497ZM23.5 27.1724C20.6332 27.1724 18.3336 24.8667 18.3336 21.9997C18.3336 19.1328 20.6269 16.8334 23.4937 16.8334C26.3606 16.8334 28.6664 19.133 28.6726 21.9999C28.6726 24.8667 26.3668 27.1724 23.5 27.1724ZM20.3161 22.83H23.4937C23.8041 22.83 24.0471 22.5878 24.0471 22.2829V18.1551C24.0471 17.8502 23.8041 17.608 23.4937 17.608C23.1892 17.608 22.9466 17.8506 22.9466 18.1551V21.7358H20.3161C20.0053 21.7358 19.769 21.9721 19.769 22.2829C19.769 22.587 20.0049 22.83 20.3161 22.83Z" fill="white" stroke="white" stroke-width="0.1"/>
<defs>
<linearGradient id="paint0_linear_842_204128" x1="8.09246" y1="9.22043" x2="27.0735" y2="26.3363" gradientUnits="userSpaceOnUse">
<stop stop-color="#AB52FF"/>
<stop offset="1" stop-color="#7442FF"/>
</linearGradient>
</defs>
</svg>
