<svg width="47" height="47" viewBox="0 0 47 47" fill="none" xmlns="http://www.w3.org/2000/svg">
<rect x="3.39209" y="3.39209" width="40.2154" height="40.2154" rx="20.1077" stroke="#844CFF"/>
<rect opacity="0.3" x="0.25" y="0.25" width="46.5" height="46.5" rx="23.25" stroke="#844CFF" stroke-width="0.5"/>
<rect x="6" y="6" width="35" height="35" rx="17.5" fill="url(#paint0_linear_1061_227499)" fill-opacity="0.2"/>
<path fill-rule="evenodd" clip-rule="evenodd" d="M29.7156 27.4531L32.8224 18.4697C32.853 18.3681 32.8506 18.2606 32.8155 18.1602C32.7804 18.0598 32.7142 17.9709 32.6247 17.9043C32.5353 17.8376 32.4266 17.7962 32.3119 17.7849C32.1971 17.7737 32.0813 17.7931 31.9784 17.8409L26.9453 20.4933L24.0197 15.874C23.9689 15.7891 23.894 15.7184 23.8029 15.6691C23.7117 15.6198 23.6078 15.5938 23.5019 15.5938C23.396 15.5938 23.292 15.6198 23.2009 15.6691C23.1098 15.7184 23.0349 15.7891 22.9841 15.874L20.0792 20.4933L15.0461 17.8409C14.9427 17.7872 14.8241 17.763 14.7055 17.7714C14.5869 17.7799 14.4738 17.8205 14.3808 17.8882C14.2877 17.9558 14.219 18.0474 14.1835 18.151C14.1479 18.2547 14.1472 18.3657 14.1813 18.4697L17.2882 27.4531H29.7156ZM29.3517 29.4297H17.4596V31.4063H29.3517V29.4297Z" fill="#844CFF"/>
<defs>
<linearGradient id="paint0_linear_1061_227499" x1="40.8506" y1="6" x2="6" y2="40.8506" gradientUnits="userSpaceOnUse">
<stop stop-color="#AB52FF"/>
<stop offset="1" stop-color="#7442FF"/>
</linearGradient>
</defs>
</svg>
