<svg fill="none" height="43" viewBox="0 0 128 43" width="128" xmlns="http://www.w3.org/2000/svg"><path d="m123.291.111816h-117.72682c-2.60075 0-4.709077 2.393954-4.709077 5.347044v32.08224c0 2.9531 2.108327 5.3471 4.709077 5.3471h117.72682c2.601 0 4.709-2.394 4.709-5.3471v-32.08224c0-2.95309-2.108-5.347044-4.709-5.347044z" fill="#000"/><path d="m123.291.967344c1.049 0 2.055.473216 2.797 1.315536s1.159 1.98476 1.159 3.17598v32.08224c0 1.1913-.417 2.3337-1.159 3.176s-1.748 1.3156-2.797 1.3156h-117.72682c-1.0491 0-2.05523-.4733-2.79705-1.3156s-1.15857-1.9847-1.15857-3.176v-32.08224c0-1.19122.41675-2.33366 1.15857-3.17598s1.74795-1.315536 2.79705-1.315536zm0-.855528h-117.72682c-1.24893 0-2.4467.563348-3.32982 1.566114-.88312 1.00277-1.379257 2.36281-1.379257 3.78093v32.08224c0 1.4182.496137 2.7782 1.379257 3.781.88312 1.0027 2.08089 1.5661 3.32982 1.5661h117.72682c1.249 0 2.447-.5634 3.33-1.5661.883-1.0028 1.379-2.3628 1.379-3.781v-32.08224c0-1.41812-.496-2.77816-1.379-3.78093-.883-1.002766-2.081-1.566114-3.33-1.566114z" fill="#a6a6a6"/><g fill="#fff"><path d="m27.1039 21.8214c.0114-.8926.2463-1.7678.683-2.5441.4366-.7763 1.0608-1.4286 1.8143-1.8961-.4787-.69-1.1102-1.2578-1.8445-1.6583-.7342-.4005-1.5509-.6228-2.3851-.6492-1.7796-.1884-3.5048 1.0746-4.4116 1.0746-.9244 0-2.3207-1.0558-3.8242-1.0246-.9725.0317-1.9203.3171-2.751.8283s-1.516 1.2309-1.9892 2.0889c-2.0495 3.5808-.5207 8.8434 1.4426 11.7379.9823 1.4173 2.1303 3.0005 3.6324 2.9444 1.47-.0616 2.019-.9459 3.7933-.9459 1.7579 0 2.2729.9459 3.8056.9102 1.5773-.0259 2.5711-1.4237 3.5189-2.8544.7058-1.0099 1.2489-2.1261 1.6091-3.3072-.9163-.3911-1.6983-1.0458-2.2485-1.8824-.5501-.8366-.8441-1.8181-.8451-2.8221z"/><path d="m24.2091 13.1698c.86-1.0418 1.2837-2.3809 1.1811-3.73291-1.3139.13926-2.5276.77291-3.3992 1.77481-.4262.4894-.7526 1.0588-.9606 1.6756-.2079.6168-.2934 1.2689-.2515 1.9191.6572.0068 1.3074-.1369 1.9016-.4204.5941-.2835 1.1168-.6993 1.5286-1.2162z"/><path d="m45.685 29.1365h-5.0162l-1.2046 3.5894h-2.1247l4.7513-13.2799h2.2074l4.7513 13.2799h-2.1609zm-4.4967-1.6563h3.9762l-1.9601-5.8253h-.0549z"/><path d="m59.3107 27.8833c0 3.0087-1.5959 4.9418-4.0041 4.9418-.6101.0322-1.2168-.1096-1.7507-.4092s-.9734-.7448-1.2682-1.2848h-.0455v4.7957h-1.9695v-12.8851h1.9064v1.6104h.0362c.3083-.5374.7552-.9803 1.2932-1.2817s1.1468-.45 1.7618-.43c2.4352 0 4.0404 1.9425 4.0404 4.9429zm-2.0243 0c0-1.9603-1.0039-3.249-2.5356-3.249-1.5048 0-2.5169 1.3159-2.5169 3.249 0 1.9508 1.0121 3.2573 2.5169 3.2573 1.5317 0 2.5356-1.2794 2.5356-3.2573z"/><path d="m69.8712 27.8833c0 3.0087-1.5958 4.9418-4.0041 4.9418-.61.0322-1.2167-.1096-1.7506-.4092s-.9734-.7448-1.2682-1.2848h-.0456v4.7957h-1.9694v-12.8851h1.9063v1.6104h.0362c.3083-.5374.7553-.9803 1.2932-1.2817.538-.3014 1.1469-.45 1.7619-.43 2.4351 0 4.0403 1.9425 4.0403 4.9429zm-2.0243 0c0-1.9603-1.0039-3.249-2.5355-3.249-1.5048 0-2.517 1.3159-2.517 3.249 0 1.9508 1.0122 3.2573 2.517 3.2573 1.5316 0 2.5355-1.2794 2.5355-3.2573z"/><path d="m76.8506 29.0236c.146 1.3169 1.4138 2.1816 3.1462 2.1816 1.66 0 2.8543-.8647 2.8543-2.0521 0-1.0308-.7203-1.648-2.4259-2.071l-1.7055-.4146c-2.4165-.589-3.5384-1.7294-3.5384-3.58 0-2.2913 1.9788-3.8651 4.7886-3.8651 2.7808 0 4.6871 1.5738 4.7513 3.8651h-1.9881c-.119-1.3252-1.2047-2.1252-2.7912-2.1252s-2.6721.8094-2.6721 1.9874c0 .9388.6934 1.4913 2.3896 1.9142l1.4499.3593c2.7001.6443 3.8219 1.7388 3.8219 3.6813 0 2.4845-1.9611 4.0405-5.0804 4.0405-2.9184 0-4.8889-1.5195-5.0162-3.9215z"/><path d="m89.1817 20.75v2.2913h1.8245v1.5738h-1.8245v5.3376c0 .8292.3653 1.2157 1.1674 1.2157.2166-.0039.4328-.0192.6478-.046v1.5644c-.3606.068-.7271.0988-1.0939.0919-1.9425 0-2.7001-.7363-2.7001-2.614v-5.5496h-1.395v-1.5738h1.395v-2.2913z"/><path d="m92.0632 27.8829c0-3.0464 1.778-4.9607 4.5506-4.9607 2.7818 0 4.5512 1.9143 4.5512 4.9607 0 3.0547-1.7601 4.9606-4.5512 4.9606-2.7902 0-4.5506-1.9059-4.5506-4.9606zm7.0954 0c0-2.0898-.949-3.3231-2.5449-3.3231-1.5958 0-2.5438 1.2427-2.5438 3.3231 0 2.098.948 3.322 2.5438 3.322 1.5959 0 2.5449-1.224 2.5449-3.322z"/><path d="m102.788 23.0416h1.879v1.648h.045c.127-.5147.426-.9696.847-1.2882.42-.3185.936-.4814 1.461-.4611.227-.0008.454.0241.675.0741v1.859c-.286-.0884-.585-.129-.885-.1201-.286-.0117-.571.0392-.836.1492s-.503.2766-.698.4882-.342.4633-.431.7378c-.09.2745-.12.5652-.087.8523v5.7429h-1.97z"/><path d="m116.775 29.8796c-.265 1.7577-1.961 2.9639-4.131 2.9639-2.791 0-4.524-1.8871-4.524-4.9147 0-3.0369 1.742-5.0066 4.441-5.0066 2.655 0 4.324 1.8402 4.324 4.7758v.6809h-6.777v.1201c-.031.3563.013.7153.13 1.0531.117.3377.303.6466.548.9059.244.2594.54.4634.868.5985s.681.1981 1.035.185c.466.044.933-.0648 1.332-.3102.399-.2453.709-.6142.884-1.0517zm-6.657-2.8897h4.796c.018-.3203-.03-.641-.141-.9417s-.282-.5751-.503-.8058-.487-.4129-.781-.535c-.294-.1222-.61-.1817-.928-.1748-.321-.0019-.639.0603-.935.183-.297.1227-.567.3035-.794.5319-.227.2285-.407.5001-.53.7992-.123.299-.185.6196-.184.9433z"/><path d="m40.9421 9.45048c.4129-.0299.8273.03304 1.2131.18429.3859.15125.7337.38703 1.0183.69033.2847.3033.499.6666.6277 1.0636.1286.3971.1684.818.1163 1.2324 0 2.0386-1.0918 3.2104-2.9754 3.2104h-2.284v-6.38102zm-1.3019 5.47852h1.1922c.2951.0178.5903-.031.8643-.1428.274-.1119.5198-.284.7196-.5039.1997-.2198.3484-.4818.4352-.7669.0867-.2852.1094-.5862.0663-.8813.0399-.2939.015-.5931-.0731-.8761-.0881-.2831-.2371-.5429-.4364-.761s-.444-.389-.7164-.5005c-.2724-.1114-.5659-.1607-.8595-.1443h-1.1922z"/><path d="m45.0265 13.4207c-.03-.3165.0059-.6358.1053-.9374.0995-.3017.2603-.579.4722-.8143.2119-.2352.4702-.4232.7583-.5518s.5996-.1951.9146-.1951c.3151 0 .6266.0665.9147.1951s.5464.3166.7583.5518c.2119.2353.3727.5126.4721.8143.0995.3016.1354.6209.1054.9374.0305.3167-.0049.6365-.1041.9386s-.2599.58-.4719.8157c-.2119.2357-.4704.4241-.7587.553-.2884.1289-.6004.1955-.9158.1955s-.6273-.0666-.9157-.1955-.5468-.3173-.7588-.553c-.2119-.2357-.3726-.5136-.4718-.8157s-.1347-.6219-.1041-.9386zm3.5322 0c0-1.0439-.4647-1.6543-1.2802-1.6543-.8186 0-1.2791.6104-1.2791 1.6543 0 1.0521.4605 1.6579 1.2791 1.6579.8155-.0001 1.2802-.6099 1.2802-1.6579z"/><path d="m55.5109 15.8304h-.9769l-.9863-3.5466h-.0745l-.9822 3.5466h-.9676l-1.3154-4.8155h.9552l.8549 3.6745h.0704l.9811-3.6745h.9034l.9811 3.6745h.0745l.8507-3.6745h.9418z"/><path d="m57.9265 11.0153h.9066v.765h.0704c.1194-.2748.3207-.5051.576-.6589s.5517-.2234.848-.1991c.2322-.0176.4654.0178.6822.1034.2168.0857.4118.2195.5704.3915s.2769.3778.3459.6022c.0691.2244.0873.4615.0532.694v3.1173h-.9417v-2.8787c0-.7738-.3333-1.1587-1.0298-1.1587-.1576-.0074-.315.0197-.4613.0794s-.2781.1506-.3863.2665-.1903.2541-.2407.405-.0678.3111-.0511.4694v2.8172h-.9418z"/><path d="m63.4803 9.13562h.9418v6.69528h-.9418z"/><path d="m65.7314 13.4207c-.0299-.3164.006-.6357.1054-.9374.0995-.3017.2604-.579.4723-.8143.2119-.2352.4702-.4232.7583-.5518s.5997-.1951.9147-.1951c.3151 0 .6267.0665.9148.1951s.5464.3166.7583.5518c.2119.2353.3727.5126.4722.8143s.1354.621.1054.9374c.0305.3168-.0049.6366-.1042.9387-.0992.3021-.2599.58-.4719.8157s-.4704.424-.7588.5529-.6004.1955-.9158.1955-.6273-.0666-.9157-.1955-.5469-.3172-.7589-.5529c-.2119-.2357-.3727-.5136-.4719-.8157s-.1347-.6219-.1042-.9387zm3.5322 0c0-1.0438-.4647-1.6542-1.2802-1.6542-.8186 0-1.2791.6104-1.2791 1.6543 0 1.0521.4605 1.6578 1.2791 1.6578.8155 0 1.2802-.6099 1.2802-1.6579z"/><path d="m71.2238 14.4687c0-.8668.6395-1.3665 1.7748-1.4375l1.2926-.0752v-.4157c0-.5086-.3332-.7958-.9769-.7958-.5257 0-.89.1948-.9946.5353h-.9117c.0962-.8272.8672-1.3577 1.9498-1.3577 1.1963 0 1.8711.601 1.8711 1.6182v3.2902h-.9066v-.6767h-.0745c-.1513.2427-.3636.4406-.6155.5735-.2518.1328-.534.1958-.8179.1826-.2003.021-.4028-.0006-.5943-.0634-.1916-.0627-.368-.1653-.5179-.3011-.1498-.1358-.2698-.3017-.3523-.4872-.0824-.1854-.1254-.3863-.1261-.5895zm3.0674-.4115v-.4026l-1.1653.0752c-.6571.0444-.9552.27-.9552.6945 0 .4334.3726.6856.8849.6856.1501.0153.3017.0001.4459-.045.1441-.045.2778-.1188.3931-.217s.2098-.2188.2779-.3547c.0682-.1358.1086-.2841.1187-.436z"/><path d="m76.4669 13.4211c0-1.5216.7752-2.4855 1.9809-2.4855.2982-.0139.5942.0582.8533.2078s.4707.3705.61.637h.0704v-2.64478h.9418v6.69528h-.9025v-.7608h-.0745c-.15.2647-.369.4828-.6332.6309-.2641.1481-.5634.2205-.8653.2093-1.214 0-1.9809-.9639-1.9809-2.4892zm.9729 0c0 1.0214.4771 1.636 1.275 1.636.7938 0 1.2843-.6235 1.2843-1.6318 0-1.0036-.4957-1.636-1.2843-1.636-.7928 0-1.2751.6188-1.2751 1.6318z"/><path d="m84.8201 13.4207c-.03-.3165.0059-.6358.1053-.9374.0995-.3017.2603-.579.4722-.8143.2119-.2352.4701-.4232.7582-.5518s.5997-.1951.9147-.1951.6266.0665.9147.1951.5464.3166.7582.5518c.2119.2353.3728.5126.4722.8143.0995.3016.1353.6209.1053.9374.0306.3167-.0048.6365-.104.9386s-.2599.58-.4719.8157c-.2119.2357-.4704.4241-.7588.553s-.6003.1955-.9157.1955-.6273-.0666-.9157-.1955-.5468-.3173-.7588-.553c-.2119-.2357-.3727-.5136-.4718-.8157-.0992-.3021-.1347-.6219-.1041-.9386zm3.5322 0c0-1.0439-.4647-1.6543-1.2802-1.6543-.8186 0-1.2792.6104-1.2792 1.6543 0 1.0521.4606 1.6579 1.2792 1.6579.8155-.0001 1.2802-.6099 1.2802-1.6579z"/><path d="m90.5845 11.0153h.9066v.765h.0703c.1194-.2748.3208-.5051.576-.6589.2553-.1538.5518-.2234.8481-.1991.2322-.0176.4653.0178.6821.1034.2169.0857.4118.2195.5704.3915.1587.172.2769.3778.346.6022s.0873.4615.0532.694v3.1173h-.9418v-2.8787c0-.7738-.3332-1.1587-1.0297-1.1587-.1577-.0074-.315.0197-.4613.0794s-.2781.1506-.3863.2665c-.1083.1159-.1904.2541-.2408.405-.0503.1509-.0678.3111-.0511.4694v2.8172h-.9417z"/><path d="m99.9584 9.81531v1.22079h1.0336v.8005h-1.0336v2.4762c0 .5044.2056.7253.6746.7253.12-.0004.24-.0077.359-.022v.7916c-.169.0306-.34.0468-.512.0486-1.0473 0-1.4644-.3718-1.4644-1.3002v-2.7195h-.7575v-.8005h.7575v-1.22079z"/><path d="m102.279 9.13562h.933v2.65368h.075c.125-.2773.332-.5089.592-.6633s.562-.224.863-.1993c.231-.0127.462.0262.676.1139.214.0878.407.2222.564.3936.157.1715.274.3758.344.5984s.09.4579.059.6893v3.109h-.943v-2.8746c0-.7691-.355-1.1587-1.02-1.1587-.162-.0134-.325.0091-.477.0658-.153.0568-.291.1464-.405.2627-.115.1163-.203.2564-.258.4105-.055.1542-.076.3186-.062.4819v2.8124h-.941z"/><path d="m111.876 14.5304c-.128.4401-.405.8208-.783 1.0755-.378.2546-.833.3671-1.285.3176-.314.0084-.626-.0523-.915-.178s-.547-.3133-.757-.5498-.366-.5162-.458-.8197-.117-.6236-.074-.938c-.042-.3153-.016-.6361.076-.9405.091-.3044.247-.5854.455-.824.209-.2386.466-.4291.754-.5587s.6-.1953.915-.1926c1.328 0 2.129.9154 2.129 2.4276v.3316h-3.37v.0532c-.014.1767.008.3546.065.5222.057.1677.149.3214.269.4512.119.1299.264.2331.426.3031.161.0699.336.105.511.1031.226.0272.454-.0137.656-.1176.202-.104.369-.2663.48-.4662zm-3.313-1.5519h2.411c.012-.1616-.01-.3239-.064-.4766-.054-.1526-.139-.2921-.25-.4096-.11-.1175-.244-.2103-.392-.2725-.149-.0622-.308-.0925-.469-.0888-.163-.002-.324.0288-.475.0908s-.288.1538-.403.2701c-.116.1162-.206.2546-.268.4068-.061.1523-.092.3154-.09.4798z"/></g></svg>