<svg width="17" height="17" viewBox="0 0 17 17" fill="none" xmlns="http://www.w3.org/2000/svg">
  <g clip-path="url(#clip0_8628_10182)">
    <path fill-rule="evenodd" clip-rule="evenodd" d="M8.04175 15.75C12.1839 15.75 15.5417 12.3921 15.5417 8.25C15.5417 4.10786 12.1839 0.75 8.04175 0.75C3.89961 0.75 0.541748 4.10786 0.541748 8.25C0.541748 12.3921 3.89961 15.75 8.04175 15.75ZM8.0415 13.922C11.1742 13.922 13.7138 11.3825 13.7138 8.24975C13.7138 5.11704 11.1742 2.57748 8.0415 2.57748C4.90879 2.57748 2.36923 5.11704 2.36923 8.24975C2.36923 11.3825 4.90879 13.922 8.0415 13.922ZM8.0415 14.5523C11.5223 14.5523 14.344 11.7305 14.344 8.24975C14.344 4.76896 11.5223 1.94723 8.0415 1.94723C4.56071 1.94723 1.73898 4.76896 1.73898 8.24975C1.73898 11.7305 4.56071 14.5523 8.0415 14.5523ZM8.23633 4.98961L9.13274 6.80595C9.16058 6.86235 9.21439 6.90145 9.27664 6.91049L11.2811 7.20176C11.4378 7.22454 11.5004 7.41718 11.387 7.52774L10.0085 8.87143C9.91844 8.95924 9.87733 9.08576 9.8986 9.20976L10.224 11.1071C10.2508 11.2632 10.0869 11.3823 9.94671 11.3085L8.15388 10.366C8.09821 10.3367 8.03169 10.3367 7.97601 10.366L6.18318 11.3085C6.04297 11.3823 5.8791 11.2632 5.90588 11.1071L6.24828 9.11073C6.25892 9.04873 6.23836 8.98547 6.19332 8.94156L4.74289 7.52774C4.62946 7.41718 4.69205 7.22453 4.84881 7.20176L6.85325 6.91049C6.9155 6.90145 6.96931 6.86235 6.99715 6.80594L7.89357 4.98961C7.96367 4.84756 8.16622 4.84756 8.23633 4.98961Z" fill="white" />
  </g>
  <defs>
    <clipPath id="clip0_8628_10182">
      <rect width="16" height="16" fill="white" transform="translate(0.041748 0.25)" />
    </clipPath>
  </defs>
</svg>
