<svg fill="none" height="44" viewBox="0 0 44 44" width="44" xmlns="http://www.w3.org/2000/svg" xmlns:xlink="http://www.w3.org/1999/xlink"><linearGradient id="a" gradientUnits="userSpaceOnUse" x1="9.63877" x2="-29.0277" y1="-19.3332" y2="38.7221"><stop offset="0" stop-color="#16b4eb"/><stop offset="1" stop-color="#23e73c"/></linearGradient><rect fill="url(#a)" fill-opacity=".15" height="44" rx="8" width="44"/><g fill="#6abe39"><path d="m26.3827 18.2727h-1.0992c-.239 0-.4664.1148-.607.3117l-3.6844 5.1094-1.6687-2.3156c-.1407-.1946-.3657-.3117-.6071-.3117h-1.0992c-.1523 0-.2414.1734-.1523.2976l2.9203 4.05c.069.0963.1599.1748.2653.2289.1053.0541.2221.0823.3405.0823.1185 0 .2352-.0282.3406-.0823s.1963-.1326.2653-.2289l4.9359-6.8437c.0915-.1243.0024-.2977-.15-.2977z"/><path d="m22 11.5c-5.7984 0-10.5 4.7016-10.5 10.5s4.7016 10.5 10.5 10.5 10.5-4.7016 10.5-10.5-4.7016-10.5-10.5-10.5zm0 19.2188c-4.8141 0-8.7188-3.9047-8.7188-8.7188s3.9047-8.7188 8.7188-8.7188 8.7188 3.9047 8.7188 8.7188-3.9047 8.7188-8.7188 8.7188z"/></g></svg>