<svg width="36" height="36" viewBox="0 0 36 36" fill="none" xmlns="http://www.w3.org/2000/svg">
  <rect width="36" height="36" rx="8" fill="url(#paint0_linear_12028_1805)" fill-opacity="0.15" />

  <mask id="mask0_12028_1805" style="mask-type:alpha" maskUnits="userSpaceOnUse" x="9" y="9" width="19" height="18">
    <path fill-rule="evenodd" clip-rule="evenodd" d="M27.0606 9.06552H9.87883V26.2473H27.0606V9.06552ZM26.1168 12.2613L24.4608 10.6053L11.4186 23.6475L13.0746 25.3035L26.1168 12.2613Z" fill="#C4C4C4" />
  </mask>
  <g mask="url(#mask0_12028_1805)">
    <path d="M18.4697 9.06552C13.7256 9.06552 9.87883 12.9123 9.87883 17.6564C9.87883 22.4006 13.7256 26.2473 18.4697 26.2473C23.2139 26.2473 27.0606 22.4006 27.0606 17.6564C27.0606 12.9123 23.2139 9.06552 18.4697 9.06552ZM18.4697 24.79C14.531 24.79 11.3362 21.5952 11.3362 17.6564C11.3362 13.7177 14.531 10.5229 18.4697 10.5229C22.4085 10.5229 25.6033 13.7177 25.6033 17.6564C25.6033 21.5952 22.4085 24.79 18.4697 24.79ZM19.3844 17.2115L18.8974 17.0984V14.5231C19.6261 14.6228 20.0767 15.0792 20.1534 15.6391C20.163 15.7158 20.2282 15.7714 20.3049 15.7714H21.1659C21.256 15.7714 21.327 15.6928 21.3193 15.6027C21.2023 14.408 20.2186 13.6409 18.905 13.5086V12.8816C18.905 12.7972 18.836 12.7282 18.7516 12.7282H18.2128C18.1284 12.7282 18.0594 12.7972 18.0594 12.8816V13.5144C16.7017 13.6467 15.6393 14.3965 15.6393 15.7963C15.6393 17.0927 16.5943 17.7178 17.5972 17.9575L18.0709 18.0783V20.8147C17.2233 20.7016 16.7477 20.249 16.6499 19.6392C16.6384 19.5664 16.5732 19.5127 16.4984 19.5127H15.6125C15.5224 19.5127 15.4514 19.5894 15.4591 19.6795C15.5454 20.7342 16.345 21.7045 18.0517 21.8292V22.4313C18.0517 22.5157 18.1207 22.5847 18.2051 22.5847H18.7497C18.8341 22.5847 18.9031 22.5157 18.9031 22.4294L18.8993 21.8215C20.4008 21.6892 21.4746 20.8857 21.4746 19.4436C21.4727 18.1128 20.6271 17.5184 19.3844 17.2115ZM18.069 16.9009C17.9616 16.8702 17.8714 16.8414 17.7813 16.805C17.1332 16.5711 16.8321 16.1933 16.8321 15.7062C16.8321 15.0101 17.3594 14.6132 18.069 14.5231V16.9009ZM18.8974 20.8205V18.2566C18.9568 18.2739 19.0105 18.2873 19.0661 18.2988C19.9731 18.575 20.278 18.9585 20.278 19.5472C20.278 20.297 19.7143 20.7476 18.8974 20.8205Z" fill="#177DDC" />
  </g>
  <rect x="25.3542" y="9.46616" width="1.51778" height="21.3119" rx="0.2" transform="rotate(45 25.3542 9.46616)" fill="#177DDC" />
  <defs>
    <filter id="filter0_b_12028_1805" x="-4" y="-4" width="44" height="44" filterUnits="userSpaceOnUse" color-interpolation-filters="sRGB">
      <feFlood flood-opacity="0" result="BackgroundImageFix" />
      <feGaussianBlur in="BackgroundImage" stdDeviation="2" />
      <feComposite in2="SourceAlpha" operator="in" result="effect1_backgroundBlur_12028_1805" />
      <feBlend mode="normal" in="SourceGraphic" in2="effect1_backgroundBlur_12028_1805" result="shape" />
    </filter>
    <linearGradient id="paint0_linear_12028_1805" x1="-18" y1="18" x2="18" y2="54" gradientUnits="userSpaceOnUse">
      <stop stop-color="#80C8F1" />
      <stop offset="1" stop-color="#4865FF" />
    </linearGradient>
  </defs>
</svg>
