<svg fill="none" height="70" viewBox="0 0 70 70" width="70" xmlns="http://www.w3.org/2000/svg">
<path d="m54.6154 0h-39.2308c-8.49497 0-15.3846 6.88963-15.3846 15.3846v39.2308c0 8.495 6.88963 15.3846 15.3846 15.3846h39.2308c8.495 0 15.3846-6.8896 15.3846-15.3846v-39.2308c0-8.49497-6.8896-15.3846-15.3846-15.3846z" fill="#ffd60a"/>
<path clip-rule="evenodd" d="m40.6021 18.3611c1.9398-2.408 5.485-2.7759 7.9264-.8361 2.4081 1.9398 2.776 5.4849.8362 7.9264l-21.1037 26.1204c-1.505 1.8395-4.0134 2.5753-6.2542 1.7726s-3.7458-2.9097-3.7458-5.3177v-26.1204c0-3.1104 2.5083-5.6188 5.6187-5.6188s5.6187 2.5084 5.6187 5.6188v10.2006zm4.6823 35.3512c-3.6455 0-6.7224-2.6756-6.7224-6.689s6.7224-10.903 6.7224-10.903 6.4548 6.9565 6.4548 10.903-2.8093 6.689-6.4548 6.689z" fill="#000" fill-rule="evenodd"/>
</svg>