<svg fill="none" height="43" viewBox="0 0 143 43" width="143" xmlns="http://www.w3.org/2000/svg" xmlns:xlink="http://www.w3.org/1999/xlink"><linearGradient id="a" gradientUnits="userSpaceOnUse" x1="23.0385" x2="5.09506" y1="9.42653" y2="27.1582"><stop offset="0" stop-color="#00a0ff"/><stop offset=".01" stop-color="#00a1ff"/><stop offset=".26" stop-color="#00beff"/><stop offset=".51" stop-color="#00d2ff"/><stop offset=".76" stop-color="#00dfff"/><stop offset="1" stop-color="#00e3ff"/></linearGradient><linearGradient id="b" gradientUnits="userSpaceOnUse" x1="35.7515" x2="10.1878" y1="21.501" y2="21.501"><stop offset="0" stop-color="#ffe000"/><stop offset=".41" stop-color="#ffbd00"/><stop offset=".78" stop-color="#ffa500"/><stop offset="1" stop-color="#ff9c00"/></linearGradient><linearGradient id="c" gradientUnits="userSpaceOnUse" x1="26.2407" x2="1.90275" y1="23.9601" y2="48.0003"><stop offset="0" stop-color="#ff3a44"/><stop offset="1" stop-color="#c31162"/></linearGradient><linearGradient id="d" gradientUnits="userSpaceOnUse" x1="7.71513" x2="18.5796" y1=".305322" y2="11.0416"><stop offset="0" stop-color="#32a071"/><stop offset=".07" stop-color="#2da771"/><stop offset=".48" stop-color="#15cf74"/><stop offset=".8" stop-color="#06e775"/><stop offset="1" stop-color="#00f076"/></linearGradient><path d="m137.383.111816h-132.09905c-2.91824 0-5.28395 2.393954-5.28395 5.347044v32.08224c0 2.9531 2.36571 5.3471 5.28395 5.3471h132.09905c2.918 0 5.284-2.394 5.284-5.3471v-32.08224c0-2.95309-2.366-5.347044-5.284-5.347044z" fill="#000"/><path d="m137.383.967344c1.177 0 2.306.473216 3.138 1.315536.833.84232 1.3 1.98476 1.3 3.17598v32.08224c0 1.1913-.467 2.3337-1.3 3.176-.832.8423-1.961 1.3156-3.138 1.3156h-132.09905c-1.17717 0-2.30612-.4733-3.13851-1.3156-.83238-.8423-1.300007-1.9847-1.300007-3.176v-32.08224c0-1.19122.467627-2.33366 1.300007-3.17598.83239-.84232 1.96134-1.315536 3.13851-1.315536zm0-.855528h-132.09905c-1.40139 0-2.74538.563348-3.73632 1.566114-.990929 1.00277-1.54763 2.36281-1.54763 3.78093v32.08224c0 1.4182.556701 2.7782 1.54763 3.781.99094 1.0027 2.33493 1.5661 3.73632 1.5661h132.09905c1.401 0 2.745-.5634 3.736-1.5661.991-1.0028 1.548-2.3628 1.548-3.781v-32.08224c0-1.41812-.557-2.77816-1.548-3.78093-.991-1.002766-2.335-1.566114-3.736-1.566114z" fill="#a6a6a6"/><g fill="#fff"><path d="m50.1131 11.0623c.0173.3922-.044.7839-.1802 1.1515-.1362.3675-.3445.7034-.6124.9873-.3002.3137-.6625.5597-1.0632.7218-.4006.1622-.8306.2369-1.2618.2193-.4336.0098-.8646-.0706-1.2663-.2361-.4018-.1656-.7656-.4128-1.0692-.7263-.6158-.6374-.9605-1.4934-.9605-2.3848 0-.89142.3447-1.74741.9605-2.38481.4708-.46553 1.0671-.77988 1.7139-.90355.6468-.12368 1.3153-.05116 1.9215.20844.3811.15852.721.40368.9934.7165l-.5601.56679c-.2099-.25584-.4758-.45863-.7767-.59229-.3008-.13366-.6283-.1945-.9565-.17769-.4142.0029-.8214.10843-1.1861.30737-.3646.19893-.6755.48522-.9056.83383-.23.34861-.3722.74891-.414 1.16601-.0419.417.0178.8381.1739 1.2264s.4038.732.7215 1.0011c.3176.269.6956.4552 1.1008.5424.4052.0871.8253.0724 1.2236-.0427s.7627-.3272 1.0613-.6177c.3228-.3582.51-.8204.5284-1.3047h-2.3038v-.77h3.0753c.0241.1629.0382.3272.0423.4919z" stroke="#fff" stroke-miterlimit="10" stroke-width=".192682"/><path d="m54.954 8.38939h-2.8533v2.03191h2.5997v.7699h-2.5997v2.0319h2.8533v.7914h-3.6776v-6.41648h3.6776z" stroke="#fff" stroke-miterlimit="10" stroke-width=".192682"/><path d="m58.4198 14.0145h-.8137v-5.62511h-1.7754v-.79137h4.4068v.79137h-1.8177z" stroke="#fff" stroke-miterlimit="10" stroke-width=".192682"/><path d="m63.3439 14.0145v-6.41648h.8137v6.41648z" stroke="#fff" stroke-miterlimit="10" stroke-width=".192682"/><path d="m67.7726 14.0145h-.8137v-5.62511h-1.7754v-.79137h4.354v.79137h-1.7649z" stroke="#fff" stroke-miterlimit="10" stroke-width=".192682"/><path d="m77.7905 13.1805c-.3052.3092-.6676.5544-1.0666.7217-.3989.1673-.8265.2534-1.2583.2534-.4319 0-.8595-.0861-1.2584-.2534s-.7613-.4125-1.0666-.7217c-.5974-.6426-.93-1.4917-.93-2.374 0-.88238.3326-1.73147.93-2.37413.2987-.31783.6599-.56868 1.0604-.73632.4005-.16763.8313-.24832 1.2646-.23685.4326-.00692.8621.07584 1.2619.24321.3999.16736.7616.41578 1.063.72996.3039.31279.5427.68402.7025 1.09178.1597.40777.2371.84375.2275 1.28235.0139.439-.0615.8763-.2215 1.2847-.16.4083-.4011.7791-.7085 1.0893zm-4.0475-.5347c.2251.2309.4933.4142.789.5393s.6131.1896.9336.1896.6378-.0645.9335-.1896.5639-.3084.789-.5393c.456-.5014.7091-1.1579.7091-1.8393 0-.6815-.2531-1.33801-.7091-1.83943-.2251-.23086-.4933-.41417-.789-.53929-.2957-.12511-.613-.18954-.9335-.18954s-.6379.06443-.9336.18954c-.2957.12512-.5639.30843-.789.53929-.456.50142-.7091 1.15793-.7091 1.83943 0 .6814.2531 1.3379.7091 1.8393z" stroke="#fff" stroke-miterlimit="10" stroke-width=".192682"/><path d="m79.8721 14.0145v-6.41648h.9828l3.0858 4.99418v-1.2406-3.75358h.8137v6.41648h-.8454l-3.2232-5.22943v1.22983 3.9996z" stroke="#fff" stroke-miterlimit="10" stroke-width=".192682"/><path d="m72.0101 23.3715c-.8904.0022-1.7601.2714-2.4993.7738-.7392.5023-1.3145 1.2152-1.6534 2.0484-.3388.8333-.4258 1.7495-.25 2.6328.1757.8833.6064 1.694 1.2375 2.3296.631.6356 1.4342 1.0676 2.3079 1.2413s1.7787.0814 2.6005-.2654 1.5236-.9323 2.0165-1.6827c.4929-.7503.7549-1.6317.7528-2.5328.0087-.6011-.1023-1.1977-.3263-1.7545s-.5564-1.0622-.9775-1.4863c-.421-.4241-.9221-.7581-1.4733-.9821-.5513-.2241-1.1414-.3336-1.7354-.3221zm0 7.3041c-.5457.0386-1.0903-.0898-1.563-.3685-.4727-.2788-.8515-.695-1.0874-1.1945-.2358-.4995-.3177-1.0593-.2349-1.6066.0827-.5472.3262-1.0566.6988-1.462.3726-.4053.8571-.6879 1.3905-.8109s1.0911-.0807 1.6005.1212c.5093.202.9469.5543 1.2558 1.0113.3088.4569.4747.9973.476 1.5509.0171.3508-.0355.7015-.1545 1.0314-.1191.3299-.3022.6323-.5386.8895-.2363.2571-.5212.4638-.8378.6077-.3165.144-.6584.2224-1.0054.2305zm-9.8492-7.3041c-.8904.0022-1.7602.2714-2.4994.7738-.7392.5023-1.3145 1.2152-1.6533 2.0484-.3388.8333-.4259 1.7495-.2501 2.6328.1757.8833.6064 1.694 1.2375 2.3296s1.4342 1.0676 2.3079 1.2413 1.7787.0814 2.6005-.2654 1.5236-.9323 2.0165-1.6827c.493-.7503.7549-1.6317.7528-2.5328.0087-.6011-.1023-1.1977-.3263-1.7545s-.5564-1.0622-.9775-1.4863c-.421-.4241-.9221-.7581-1.4733-.9821-.5512-.2241-1.1414-.3336-1.7353-.3221zm0 7.3041c-.5458.0386-1.0904-.0898-1.5631-.3685-.4726-.2788-.8515-.695-1.0874-1.1945-.2358-.4995-.3177-1.0593-.2349-1.6066.0827-.5472.3262-1.0566.6988-1.462.3726-.4053.8571-.6879 1.3906-.8109.5334-.123 1.091-.0807 1.6004.1212.5093.202.9469.5543 1.2558 1.0113.3088.4569.4747.9973.4761 1.5509.017.3508-.0356.7015-.1546 1.0314-.1191.3299-.3022.6323-.5386.8895-.2363.2571-.5212.4638-.8378.6077-.3165.144-.6584.2224-1.0053.2305zm-11.7093-5.9031v1.9249h4.5654c-.0716.9066-.4441 1.7622-1.0568 2.4276-.458.4721-1.0088.8417-1.6168 1.0849s-1.2597.3545-1.9129.3267c-1.3454 0-2.6356-.5408-3.5869-1.5035-.9513-.9626-1.4857-2.2683-1.4857-3.6297s.5344-2.667 1.4857-3.6297c.9513-.9626 2.2415-1.5034 3.5869-1.5034 1.2897-.0195 2.5351.4762 3.4663 1.3795l1.3421-1.3582c-.6299-.6304-1.3777-1.1272-2.1998-1.4614-.822-.3343-1.7017-.4991-2.5875-.4849-.9395-.037-1.8767.1183-2.7554.4566-.8788.3383-1.681.8527-2.3587 1.5122-.6776.6596-1.2167 1.4507-1.5849 2.3262-.3682.8754-.558 1.817-.558 2.7685 0 .9514.1898 1.893.558 2.7684.3682.8755.9073 1.6667 1.5849 2.3262.6777.6596 1.4799 1.1739 2.3587 1.5122.8787.3383 1.8159.4936 2.7554.4566.904.0365 1.8054-.1208 2.6451-.4618.8396-.341 1.5985-.8578 2.2267-1.5166 1.1098-1.2337 1.7011-2.8562 1.6486-4.5236.0038-.4013-.028-.8022-.0951-1.1977zm47.8832 1.4971c-.2756-.8205-.791-1.5369-1.4779-2.0545-.6869-.5175-1.513-.8117-2.3688-.8436-.5781-.0011-1.1502.1177-1.6811.3492s-1.0092.5707-1.4054.9967-.7018.9297-.898 1.4799c-.1962.5503-.2788 1.1354-.2427 1.7192-.009.9762.2943 1.9292.8646 2.7166s1.3771 1.367 2.2997 1.6521c.9227.2852 1.9118.2606 2.8195-.07s1.6854-.9494 2.2169-1.7642l-1.5323-1.0694c-.2285.3853-.5525.7035-.9399.9229-.3874.2195-.8248.3327-1.2688.3283-.4581.0192-.9111-.1024-1.2997-.3486-.3885-.2462-.6943-.6056-.8773-1.0309l6.0131-2.5131zm-6.1294 1.5186c-.0214-.3322.0229-.6654.1303-.98s.2758-.6044.4952-.8524c.2195-.248.4856-.4492.7829-.5918.2972-.1425.6196-.2237.9483-.2386.3405-.0211.6795.0601.9747.2332.2951.1731.5332.4305.6844.7399zm-4.8824 4.406h1.9762v-13.3677h-1.9762zm-3.2337-7.8067h-.074c-.2952-.3402-.6596-.6119-1.0681-.7965-.4086-.1846-.8517-.2777-1.2991-.2729-1.1549.0566-2.244.5608-3.0415 1.4079-.7975.8472-1.2424 1.9724-1.2424 3.1424s.4449 2.2952 1.2424 3.1424c.7975.8471 1.8866 1.3513 3.0415 1.4079.448.0091.8925-.082 1.3017-.2669.4092-.1848.773-.4589 1.0655-.8025h.074v.6524c0 1.7431-.9194 2.6735-2.399 2.6735-.4942-.011-.974-.1704-1.3786-.4579-.4045-.2875-.7155-.6902-.8935-1.1569l-1.712.7165c.3166.8044.8669 1.4928 1.5783 1.974.7113.4811 1.5503.7325 2.4058.7209 2.3144 0 4.2272-1.3795 4.2272-4.7375v-8.0954h-1.8282zm-2.2721 6.2881c-.6924-.0437-1.3424-.3528-1.8174-.8644-.475-.5117-.7395-1.1873-.7395-1.8893 0-.7021.2645-1.3777.7395-1.8893s1.125-.8208 1.8174-.8645c.3384.0148.6704.0983.9763.2456s.5793.3553.8041.6118c.2248.2564.3964.5559.5044.8808.1081.3249.1505.6684.1246 1.0102.0289.343-.0113.6883-.1181 1.0151-.1069.3267-.278.6282-.5033.8861-.2252.2579-.4998.4669-.8071.6144-.3074.1474-.6411.2303-.9809.2435zm25.7748-11.8491h-4.734v13.3677h1.976v-5.069h2.758c.564.0409 1.129-.036 1.662-.226.532-.1899 1.02-.4889 1.434-.8782.413-.3893.743-.8606.968-1.3845s.342-1.0892.342-1.6606c0-.5715-.117-1.1367-.342-1.6607-.225-.5239-.555-.9952-.968-1.3845-.414-.3893-.902-.6882-1.434-.8782-.533-.19-1.098-.2669-1.662-.226zm0 6.4165h-2.758v-4.5557h2.801c.297 0 .591.0592.865.1742s.524.2836.734.4961.376.4648.49.7425c.114.2776.172.5752.172.8758 0 .3005-.058.5981-.172.8757-.114.2777-.28.53-.49.7425s-.46.3811-.734.4961-.568.1742-.865.1742zm12.196-1.9142c-.72-.0449-1.437.1246-2.062.4876-.626.3631-1.132.9036-1.457 1.5549l1.743.7379c.176-.3214.441-.5844.762-.7571.32-.1727.683-.2477 1.045-.216.251-.0297.505-.0085.748.0623.243.0709.469.1899.666.3501.197.1603.36.3586.48.5834s.195.4716.22.7259v.1283c-.636-.338-1.343-.5142-2.061-.5133-1.881 0-3.804 1.0694-3.804 3.0158.018.4137.119.8193.295 1.1929.177.3736.426.7075.733.9818.306.2743.664.4835 1.052.6151s.798.183 1.206.151c.496.0278.991-.0784 1.433-.3077.442-.2292.815-.5733 1.083-.9969h.063v1.0694h1.902v-5.1439c0-2.342-1.754-3.7002-4.005-3.7002zm-.243 7.3254c-.645 0-1.543-.3315-1.543-1.1336 0-1.0694 1.12-1.433 2.113-1.433.628-.0156 1.248.1395 1.797.4492-.067.5807-.339 1.1175-.766 1.5108-.428.3932-.982.6163-1.559.628zm11.223-7.0153-2.262 5.7962h-.063l-2.346-5.7962h-2.114l3.519 8.1061-2.008 4.5022h2.061l5.411-12.6083zm-17.754 8.5553h1.965v-13.3677h-1.965z"/></g><path d="m11.0333 8.17532c-.3482.41667-.5259.95227-.4967 1.49718v23.6553c-.0359.5458.1426 1.0839.4967 1.4972l.074.0856 13.0937-13.25v-.3208l-13.0937-13.23934z" fill="url(#a)"/><path d="m28.5336 26.0781-4.3328-4.4167v-.3208l4.3328-4.4166.0952.0641 5.1888 2.973c1.4795.8448 1.4795 2.235 0 3.0906l-5.1677 2.9729z" fill="url(#b)"/><path d="m28.6607 26.0134-4.4596-4.5129-13.1677 13.3248c.2987.269.6809.4238 1.0805.4374.3995.0137.7912-.1146 1.1071-.3625z" fill="url(#c)"/><path d="m28.6607 16.9881-15.4397-8.87609c-.3138-.2514-.7052-.38279-1.1053-.37105-.4001.01173-.7833.16584-1.0823.43521l13.1677 13.32483z" fill="url(#d)"/><path d="m28.5339 25.9156-15.3129 8.8227c-.3044.2325-.6754.3582-1.0568.3582s-.7524-.1257-1.0568-.3582l-.074.0748.074.0856c.3044.2325.6754.3582 1.0568.3582s.7524-.1257 1.0568-.3582l15.4397-8.8868z" fill="#000" opacity=".2"/><path d="m11.0332 34.6746c-.3395-.4242-.5058-.9636-.465-1.5079v.1605c-.036.5458.1426 1.0839.4967 1.4971l.074-.0748z" fill="#000" opacity=".12"/><path d="m33.818 22.8907-5.2839 3.0264.0951.0963 5.1888-2.973c.3063-.131.572-.3432.7691-.6142.1972-.271.3185-.5908.3511-.9257-.0661.3043-.2019.5887-.3964.8301-.1946.2415-.4425.4334-.7238.5601z" fill="#000" opacity=".12"/><path d="m13.2204 8.26184 20.5968 11.84906c.2813.1267.5292.3186.7238.5601.1946.2414.3304.5258.3964.8301-.0326-.3349-.1539-.6546-.351-.9257-.1972-.271-.4629-.4832-.7692-.6142l-20.5968-11.84908c-1.469-.85553-2.6843-.14972-2.6843 1.56134v.16041c.0317-1.71105 1.2153-2.41686 2.6843-1.57203z" fill="#fff" opacity=".25"/></svg>